# xmcd
#
# Track frame offsets: 
#        150
#        21565
#        50043
#        77966
#        100373
#        124671
#        148599
#        180069
#        201809
#        225138
#
# Disc length: 3318 seconds
#
# Revision: 2
# Processed by: cddbd v1.4PL0 Copyright (c) Steve Scherf et al.
# Submitted via: ExactAudioCopy v0.90b3
#
DISCID=7f0cf40a
DTITLE=Red Snapper - Making Bones
DYEAR=1998
DGENRE=Acid Jazz
TTITLE0=The Sleepless
TTITLE1=Crease
TTITLE2=Image Of You
TTITLE3=Bogeyman
TTITLE4=The Tunnel
TTITLE5=Like A Moving Truck
TTITLE6=Spitalfields
TTITLE7=Seeing Red
TTITLE8=Suckerpunch
TTITLE9=4 Dead Monks
EXTD=Red Snapper - Making Bones
EXTT0=
EXTT1=
EXTT2=
EXTT3=
EXTT4=
EXTT5=
EXTT6=
EXTT7=
EXTT8=
EXTT9=
PLAYORDER=
